<svg width="75" height="75" viewBox="0 0 75 75" fill="none" xmlns="http://www.w3.org/2000/svg">
<path d="M30.1818 29.7153C30.1818 26.1775 27.7749 26.1775 27.7749 26.1775H26.5004H17.8726V33.7688H27.161C28.7662 33.768 30.1818 33.2547 30.1818 29.7153Z" fill="#2F2F2F"/>
<path d="M27.7756 39.0132H17.8726V48.1052H27.3183C28.7393 48.0646 31.3618 47.6196 31.3618 43.6858C31.3618 38.9656 27.7756 39.0132 27.7756 39.0132Z" fill="#2F2F2F"/>
<path d="M53.1276 33.7686C47.8726 33.7686 47.1399 39.0128 47.1399 39.0128H58.3151C58.3159 39.0128 58.3826 33.7686 53.1276 33.7686Z" fill="#2F2F2F"/>
<path d="M37.5 0C16.7893 0 0 16.79 0 37.5C0 58.21 16.7893 75 37.5 75C58.2107 75 75 58.21 75 37.5C75 16.79 58.2107 0 37.5 0ZM45.676 22.134H59.7123V26.3233H45.676V22.134ZM38.5818 44.1069C38.5818 54.4903 27.7757 54.1488 27.7757 54.1488H17.8726H17.5818H10.0726V20.1299H17.5818H17.8726H27.7749C33.155 20.1299 37.4018 23.1 37.4018 29.1875C37.4018 35.2757 32.2105 35.6616 32.2105 35.6616C39.0537 35.6616 38.5818 44.1069 38.5818 44.1069ZM53.1944 49.4724C58.8491 49.4724 58.6488 45.8125 58.6488 45.8125H64.6358C64.6358 55.5253 52.9949 54.8601 52.9949 54.8601C39.0253 54.8601 39.9238 41.855 39.9238 41.855C39.9238 41.855 39.913 28.7854 52.9934 28.7854C66.7634 28.7854 64.8353 43.5514 64.8353 43.5514H47.2074C47.2074 49.8729 53.1944 49.4724 53.1944 49.4724Z" fill="#2F2F2F"/>
</svg>
