<svg width="75" height="75" viewBox="0 0 75 75" fill="none" xmlns="http://www.w3.org/2000/svg">
<path d="M44.6777 37.5C44.6777 41.4642 41.4642 44.6777 37.5 44.6777C33.5358 44.6777 30.3223 41.4642 30.3223 37.5C30.3223 33.5358 33.5358 30.3223 37.5 30.3223C41.4642 30.3223 44.6777 33.5358 44.6777 37.5Z" fill="#2F2F2F"/>
<path d="M54.2863 24.8005C53.9412 23.8655 53.3908 23.0192 52.6755 22.3246C51.9809 21.6093 51.1352 21.0589 50.1996 20.7138C49.4409 20.4191 48.301 20.0684 46.2016 19.9728C43.9305 19.8692 43.2496 19.8469 37.5001 19.8469C31.75 19.8469 31.0691 19.8687 28.7986 19.9722C26.6992 20.0684 25.5588 20.4191 24.8006 20.7138C23.865 21.0589 23.0187 21.6093 22.3247 22.3246C21.6094 23.0192 21.0589 23.8649 20.7133 24.8005C20.4186 25.5592 20.0679 26.6996 19.9723 28.7991C19.8688 31.0696 19.8464 31.7505 19.8464 37.5006C19.8464 43.2501 19.8688 43.931 19.9723 46.2021C20.0679 48.3015 20.4186 49.4413 20.7133 50.2001C21.0589 51.1356 21.6088 51.9814 22.3241 52.676C23.0187 53.3913 23.8645 53.9417 24.8 54.2868C25.5588 54.582 26.6992 54.9328 28.7986 55.0284C31.0691 55.1319 31.7494 55.1537 37.4995 55.1537C43.2502 55.1537 43.9311 55.1319 46.201 55.0284C48.3005 54.9328 49.4409 54.582 50.1996 54.2868C52.0776 53.5624 53.5619 52.0781 54.2863 50.2001C54.581 49.4413 54.9317 48.3015 55.0279 46.2021C55.1314 43.931 55.1532 43.2501 55.1532 37.5006C55.1532 31.7505 55.1314 31.0696 55.0279 28.7991C54.9323 26.6996 54.5815 25.5592 54.2863 24.8005ZM37.5001 48.5573C31.393 48.5573 26.4422 43.6071 26.4422 37.5C26.4422 31.3929 31.393 26.4427 37.5001 26.4427C43.6067 26.4427 48.5574 31.3929 48.5574 37.5C48.5574 43.6071 43.6067 48.5573 37.5001 48.5573ZM48.9945 28.5896C47.5675 28.5896 46.4105 27.4326 46.4105 26.0056C46.4105 24.5785 47.5675 23.4215 48.9945 23.4215C50.4216 23.4215 51.5786 24.5785 51.5786 26.0056C51.578 27.4326 50.4216 28.5896 48.9945 28.5896Z" fill="#2F2F2F"/>
<path d="M37.5 0C16.7925 0 0 16.7925 0 37.5C0 58.2075 16.7925 75 37.5 75C58.2075 75 75 58.2075 75 37.5C75 16.7925 58.2075 0 37.5 0ZM58.9033 46.3778C58.7992 48.67 58.4347 50.235 57.9025 51.6048C56.7839 54.4973 54.4973 56.7839 51.6048 57.9025C50.2356 58.4347 48.67 58.7986 46.3783 58.9033C44.0821 59.008 43.3485 59.0332 37.5006 59.0332C31.6521 59.0332 30.9191 59.008 28.6222 58.9033C26.3306 58.7986 24.765 58.4347 23.3957 57.9025C21.9584 57.3618 20.6572 56.5144 19.5814 55.4186C18.4862 54.3434 17.6388 53.0416 17.098 51.6048C16.5659 50.2356 16.2014 48.67 16.0973 46.3783C15.9914 44.0815 15.9668 43.3479 15.9668 37.5C15.9668 31.6521 15.9914 30.9185 16.0967 28.6222C16.2008 26.33 16.5648 24.765 17.0969 23.3952C17.6376 21.9584 18.4856 20.6566 19.5814 19.5814C20.6566 18.4856 21.9584 17.6382 23.3952 17.0975C24.765 16.5653 26.33 16.2014 28.6222 16.0967C30.9185 15.992 31.6521 15.9668 37.5 15.9668C43.3479 15.9668 44.0815 15.992 46.3778 16.0973C48.67 16.2014 50.235 16.5653 51.6048 17.0969C53.0416 17.6376 54.3434 18.4856 55.4192 19.5814C56.5144 20.6572 57.3624 21.9584 57.9025 23.3952C58.4352 24.765 58.7992 26.33 58.9039 28.6222C59.0086 30.9185 59.0332 31.6521 59.0332 37.5C59.0332 43.3479 59.0086 44.0815 58.9033 46.3778Z" fill="#2F2F2F"/>
</svg>
