<svg width="75" height="75" viewBox="0 0 75 75" fill="none" xmlns="http://www.w3.org/2000/svg">
<path d="M37.5 0C16.7925 0 0 16.7925 0 37.5C0 58.2075 16.7925 75 37.5 75C58.2075 75 75 58.2075 75 37.5C75 16.7925 58.2075 0 37.5 0ZM26.6029 56.6895H17.47V29.2128H26.6029V56.6895ZM22.0367 25.4608H21.9772C18.9125 25.4608 16.9304 23.3511 16.9304 20.7144C16.9304 18.0182 18.9732 15.9668 22.0974 15.9668C25.2216 15.9668 27.1442 18.0182 27.2038 20.7144C27.2038 23.3511 25.2216 25.4608 22.0367 25.4608ZM59.5345 56.6895H50.4026V41.9901C50.4026 38.2959 49.0803 35.7765 45.7758 35.7765C43.2529 35.7765 41.7503 37.476 41.09 39.1165C40.8485 39.7036 40.7896 40.5241 40.7896 41.3452V56.6895H31.6572C31.6572 56.6895 31.7768 31.7905 31.6572 29.2128H40.7896V33.1032C42.0033 31.2309 44.1748 28.5679 49.0202 28.5679C55.0289 28.5679 59.5345 32.4949 59.5345 40.9344V56.6895Z" fill="#E6CB96"/>
</svg>
