<svg width="75" height="75" viewBox="0 0 75 75" fill="none" xmlns="http://www.w3.org/2000/svg">
<path d="M32.8291 44.5251L45.0274 37.4995L32.8291 30.474V44.5251Z" fill="#2F2F2F"/>
<path d="M37.5 0C16.7925 0 0 16.7925 0 37.5C0 58.2075 16.7925 75 37.5 75C58.2075 75 75 58.2075 75 37.5C75 16.7925 58.2075 0 37.5 0ZM60.9318 37.5383C60.9318 37.5383 60.9318 45.1435 59.967 48.8108C59.4263 50.8181 57.8436 52.4008 55.8363 52.9409C52.169 53.9062 37.5 53.9062 37.5 53.9062C37.5 53.9062 22.8693 53.9062 19.1637 52.9026C17.1564 52.3624 15.5737 50.7792 15.033 48.7719C14.0676 45.1435 14.0676 37.5 14.0676 37.5C14.0676 37.5 14.0676 29.8954 15.033 26.2281C15.5731 24.2208 17.1947 22.5992 19.1637 22.0591C22.831 21.0938 37.5 21.0938 37.5 21.0938C37.5 21.0938 52.169 21.0938 55.8363 22.0974C57.8436 22.6376 59.4263 24.2208 59.967 26.2281C60.9707 29.8954 60.9318 37.5383 60.9318 37.5383Z" fill="#2F2F2F"/>
</svg>
